<?xml version="1.0" encoding="iso-8859-1"?>
<!-- Generator: Adobe Illustrator 18.0.0, SVG Export Plug-In . SVG Version: 6.00 Build 0)  -->
<!DOCTYPE svg PUBLIC "-//W3C//DTD SVG 1.1//EN" "http://www.w3.org/Graphics/SVG/1.1/DTD/svg11.dtd">
<svg version="1.1" id="Capa_1" xmlns="http://www.w3.org/2000/svg" xmlns:xlink="http://www.w3.org/1999/xlink" x="0px" y="0px"
	 viewBox="0 0 498.021 498.021" style="enable-background:new 0 0 498.021 498.021;" xml:space="preserve">
<g>
	<path d="M232.751,164.42c0.605,0.308,1.265,0.461,1.926,0.461c0.662,0,1.323-0.154,1.929-0.463
		c2.288-1.165,56.04-28.918,56.04-60.84c0-17.131-13.959-31.069-31.117-31.07c-11.442,0-21.46,6.207-26.865,15.431
		c-5.406-9.225-15.425-15.431-26.867-15.431c-17.158,0-31.116,13.959-31.116,31.116C176.68,135.549,230.462,163.256,232.751,164.42z
		 M207.797,81.009c12.471,0,22.617,10.146,22.617,22.616c0,2.347,1.903,4.25,4.25,4.25c2.347,0,4.25-1.903,4.25-4.25
		c0-12.471,10.145-22.616,22.615-22.616c12.471,0.001,22.617,10.125,22.617,22.57c0,21.249-34.038,43.969-49.473,52.257
		c-15.442-8.265-49.493-30.936-49.493-52.21C185.18,91.154,195.326,81.009,207.797,81.009z"/>
	<path d="M146.632,102.586c0.27,0.062,0.539,0.091,0.804,0.091c1.652,0,3.144-1.139,3.525-2.818
		c4.354-19.187,15.064-36.81,30.155-49.624c1.523-1.293,1.709-3.577,0.416-5.1c-1.293-1.523-3.577-1.71-5.1-0.416
		c-16.278,13.821-27.83,32.835-32.528,53.539C143.462,100.206,144.683,102.145,146.632,102.586z"/>
	<path d="M155.886,184.179c0.578,1.391,1.924,2.23,3.342,2.23c0.463,0,0.934-0.089,1.388-0.278c1.845-0.767,2.719-2.885,1.952-4.73
		c-8.824-21.224-13.885-43.501-13.885-61.121c0-1.998-1.62-3.618-3.618-3.618s-3.618,1.62-3.618,3.618
		C141.447,139.089,146.575,161.783,155.886,184.179z"/>
	<path d="M440.922,118.432c0.265,0,0.535-0.029,0.804-0.091c1.949-0.442,3.17-2.38,2.728-4.329
		c-4.699-20.704-16.25-39.718-32.528-53.539c-1.523-1.293-3.807-1.106-5.1,0.417c-1.293,1.523-1.107,3.807,0.417,5.1
		c15.091,12.814,25.801,30.438,30.155,49.624C437.778,117.293,439.269,118.432,440.922,118.432z"/>
	<path d="M443.293,132.416c-1.998,0-3.618,1.62-3.618,3.618c0,17.62-5.061,39.898-13.885,61.122
		c-0.767,1.845,0.106,3.963,1.952,4.73c0.454,0.189,0.925,0.278,1.388,0.278c1.418,0,2.764-0.839,3.342-2.23
		c9.312-22.396,14.44-45.089,14.44-63.9C446.911,134.036,445.291,132.416,443.293,132.416z"/>
	<path d="M82.117,90.883c-14.581,12.381-24.93,29.413-29.139,47.96c-0.442,1.949,0.779,3.887,2.727,4.329
		c0.27,0.062,0.539,0.091,0.804,0.091c1.652,0,3.144-1.139,3.525-2.818c3.865-17.029,13.371-32.671,26.766-44.045
		c1.523-1.293,1.71-3.577,0.417-5.1C85.923,89.776,83.64,89.59,82.117,90.883z"/>
	<path d="M58.013,158.569c0-1.998-1.62-3.618-3.618-3.618c-1.998,0-3.618,1.62-3.618,3.618c0,16.827,4.584,37.119,12.908,57.139
		c0.578,1.391,1.924,2.23,3.342,2.23c0.463,0,0.934-0.089,1.388-0.278c1.845-0.767,2.719-2.885,1.952-4.73
		C62.516,194.048,58.013,174.234,58.013,158.569z"/>
	<path d="M354.489,17.51c-16.666,0-32.716,3.442-47.754,10.226C286.419,10.449,260.115,0,231.413,0
		c-39.92,0-75.206,20.205-96.18,50.922c-1.298-0.049-2.574-0.082-3.829-0.082c-57.488,0-104.259,46.77-104.259,104.259
		c0,28.594,11.74,66.384,29.91,96.274c16.602,27.313,36.185,45.111,56.488,51.754l-13.548,20.46
		c-0.736,1.111-0.801,2.536-0.171,3.71c0.63,1.173,1.855,1.906,3.188,1.906h25.983c-0.134,0.413-0.225,0.845-0.225,1.303
		c0,12.533,2.708,18.868,5.327,24.995c2.388,5.586,4.643,10.862,4.643,21.655c0,10.792-2.255,16.068-4.643,21.654
		c-2.619,6.128-5.327,12.463-5.327,24.997c0,12.53,2.708,18.865,5.327,24.991c2.388,5.586,4.643,10.861,4.643,21.653
		c0,10.789-2.255,16.064-4.642,21.65c-0.922,2.158,0.079,4.656,2.238,5.578c0.544,0.233,1.111,0.343,1.668,0.343
		c1.65,0,3.221-0.967,3.91-2.581c2.619-6.126,5.326-12.461,5.326-24.99c0-12.532-2.708-18.868-5.328-24.994
		c-2.387-5.585-4.643-10.86-4.643-21.649c0-10.793,2.255-16.07,4.643-21.656c2.619-6.127,5.327-12.463,5.327-24.995
		c0-12.533-2.708-18.869-5.327-24.996c-2.388-5.586-4.643-10.862-4.643-21.654c0-0.457-0.091-0.89-0.225-1.303h25.983
		c1.333,0,2.557-0.732,3.188-1.906c0.63-1.174,0.565-2.599-0.171-3.71l-14.158-21.381c13.673-5.15,27.013-15.413,39.414-30.414
		c5.989,4.035,12.091,7.19,18.26,9.411l-13.174,22.818c-0.646,1.12-0.646,2.499,0,3.618c0.646,1.12,1.841,1.809,3.133,1.809h27.327
		c-0.223,11.087-2.654,16.799-5.226,22.816c-2.916,6.822-5.932,13.877-5.932,27.824c0,13.947,3.015,21.001,5.932,27.824
		c2.699,6.314,5.248,12.277,5.248,24.485c0,12.204-2.549,18.166-5.247,24.478c-2.916,6.822-5.932,13.876-5.932,27.822
		c0,13.946,3.016,21,5.932,27.822c0.243,0.569,0.486,1.137,0.728,1.71c0.684,1.625,2.26,2.602,3.919,2.602
		c0.549,0,1.108-0.107,1.647-0.334c2.163-0.911,3.179-3.402,2.268-5.566c-0.247-0.587-0.497-1.17-0.746-1.754
		c-2.699-6.313-5.248-12.275-5.248-24.481c0-12.206,2.549-18.168,5.247-24.481c2.917-6.821,5.932-13.874,5.932-27.819
		c0-13.948-3.016-21.003-5.932-27.826c-2.699-6.314-5.247-12.277-5.247-24.483c0-12.207,2.549-18.17,5.247-24.483
		c2.796-6.542,5.676-13.315,5.909-26.157h24.192c1.292,0,2.487-0.689,3.133-1.809c0.646-1.12,0.646-2.499,0-3.618l-12.569-21.769
		c11.959-3.68,23.711-10.838,34.888-21.21c12.054,15.351,29.123,31.859,50.132,38.538l-14.018,24.279
		c-0.647,1.12-0.647,2.499,0,3.618c0.646,1.12,1.841,1.809,3.133,1.809h25.777c0.189,13.054,3.094,19.888,5.914,26.485
		c2.699,6.314,5.248,12.277,5.248,24.483c0,12.206-2.549,18.169-5.248,24.483c-2.916,6.823-5.932,13.878-5.932,27.826
		c0,13.944,3.015,20.997,5.932,27.819c2.699,6.313,5.248,12.275,5.248,24.481c0,2.999-0.15,5.695-0.458,8.243
		c-0.282,2.33,1.379,4.448,3.709,4.729c0.173,0.021,0.345,0.031,0.516,0.031c2.119,0,3.953-1.583,4.214-3.74
		c0.35-2.891,0.52-5.92,0.52-9.264c0-13.946-3.016-21-5.932-27.822c-2.698-6.312-5.247-12.274-5.247-24.477
		c0-12.208,2.549-18.172,5.248-24.485c2.916-6.823,5.932-13.877,5.932-27.824c0-13.947-3.016-21.002-5.932-27.824
		c-2.597-6.075-5.048-11.843-5.23-23.144h25.741c1.292,0,2.487-0.689,3.133-1.809c0.646-1.12,0.646-2.499,0-3.618l-13.956-24.172
		c22.974-7.165,45.177-27.175,63.979-58.106c20.328-33.441,33.462-75.709,33.462-107.683
		C470.876,69.721,418.665,17.51,354.489,17.51z M231.413,8.5C290.902,8.5,339.3,56.898,339.3,116.387
		c0,30.527-12.65,71.062-32.226,103.267c-5.589,9.195-13.815,21.08-24.229,31.617c-0.278,0.215-0.513,0.462-0.723,0.726
		c-13.579,13.523-30.793,24.641-50.709,24.641c-14.091,0-26.825-5.575-37.881-13.62c-0.126-0.127-0.244-0.259-0.388-0.372
		c-0.247-0.193-0.51-0.35-0.781-0.48c-16.382-12.306-28.962-29.928-36.611-42.512c-19.577-32.205-32.226-72.74-32.226-103.267
		C123.526,56.898,171.924,8.5,231.413,8.5z M144.755,304.539l11.54,17.427h-46.547l11.203-16.919
		c3.476,0.665,6.963,1.011,10.453,1.011c4.441,0,8.879-0.553,13.293-1.628C144.72,304.465,144.732,304.503,144.755,304.539z
		 M131.404,297.558c-31.608,0-55.598-31.702-67.086-50.6c-17.419-28.655-28.673-64.712-28.673-91.859
		c0-52.328,42.192-94.98,94.343-95.741c-9.52,16.864-14.962,36.322-14.962,57.029c0,31.974,13.135,74.241,33.462,107.683
		c10.998,18.092,23.161,32.439,35.96,42.675C172.138,281.523,153.656,297.558,131.404,297.558z M253.272,302.211h-47.483
		l10.896-18.873c4.891,1.185,9.808,1.801,14.728,1.801c3.799,0,7.597-0.365,11.382-1.074L253.272,302.211z M377.99,322.049h-47.483
		l11.891-20.596c3.912,0.771,7.942,1.195,12.091,1.195c3.889,0,7.775-0.386,11.648-1.129L377.99,322.049z M430.15,237.164
		c-12.936,21.282-39.968,56.984-75.661,56.984c-27.003,0-49.059-20.625-63.416-39.133c8.164-8.601,15.971-18.946,23.265-30.945
		c20.328-33.441,33.462-75.709,33.462-107.683c0-32.135-13.092-61.269-34.221-82.351c12.96-5.328,26.692-8.027,40.909-8.027
		c59.489,0,107.887,48.398,107.887,107.887C462.376,164.424,449.726,204.959,430.15,237.164z"/>
</g>
<g>
</g>
<g>
</g>
<g>
</g>
<g>
</g>
<g>
</g>
<g>
</g>
<g>
</g>
<g>
</g>
<g>
</g>
<g>
</g>
<g>
</g>
<g>
</g>
<g>
</g>
<g>
</g>
<g>
</g>
</svg>
